# xmcd CD database file
#
# Track frame offsets:
#	150
#	14067
#	28527
#	41902
#	58340
#	81332
#	101375
#	117395
#	132982
#	153425
#	171967
#	189380
#	206527
#	227882
#	245285
#	262437
#	276212
#	296700
#	309320
#	329467
#
# Disc length: 4637 seconds
#
# Revision: 1
# Processed by: cddbd v1.5.2PL0 Copyright (c) Steve Scherf et al.
# Submitted via: CDex 1.70beta2
#
DISCID=32121b14
DTITLE=Bjørn Jens - 15 År med Mackøl og måsegg
DYEAR=2002
DGENRE=Country
TTITLE0=Lille Ville Willy
TTITLE1=Mackøl og måsegg
TTITLE2=No må du pinadø skjerpe dæ gutt
TTITLE3=Ingen norske flagg
TTITLE4=Ny pappa
TTITLE5=Ensomme damer
TTITLE6=Fire minutt
TTITLE7=Når du går så lukk att døra
TTITLE8=Oddemann
TTITLE9=Heim tell Helgeland
TTITLE10=Sjømann seiler for alltid
TTITLE11=Meisla i stein
TTITLE12=Røske næver i Beiarn
TTITLE13=Vinter
TTITLE14=Nattens dronning
TTITLE15=Janne. 18 år
TTITLE16=Sangen min te de
TTITLE17=Nyran og levra e dårlig, men rogna e fin
TTITLE18=Popartist
TTITLE19=Fengselsfugl
EXTD=YEAR: 2002
EXTT0=
EXTT1=
EXTT2=
EXTT3=
EXTT4=
EXTT5=
EXTT6=
EXTT7=
EXTT8=
EXTT9=
EXTT10=
EXTT11=
EXTT12=
EXTT13=
EXTT14=
EXTT15=
EXTT16=
EXTT17=
EXTT18=
EXTT19=
PLAYORDER=
